<svg id="Logo" xmlns="http://www.w3.org/2000/svg" viewBox="0 0 412.1 187.5"><defs><style>.cls-1{fill:#231f20;}.cls-2{fill:none;stroke:#000;stroke-linecap:round;stroke-linejoin:round;stroke-width:3px;}</style></defs><title>Logo</title><path class="cls-1" d="M147,40.5A12.8,12.8,0,0,1,142,51.1Q137.1,55,129,55q-9.8,0-15-2.2V49.1q5.8,2.4,14.7,2.4,6.6,0,10.4-3a9.6,9.6,0,0,0,3.9-7.9,9.1,9.1,0,0,0-1.3-5,11.7,11.7,0,0,0-4.2-3.6,51.4,51.4,0,0,0-8.5-3.5q-8.2-2.8-11.3-6.1a12.1,12.1,0,0,1-3.1-8.7,12,12,0,0,1,4.7-9.8Q124,0,131.4,0a35.4,35.4,0,0,1,14.1,2.9l-1.4,3.2a33,33,0,0,0-12.7-2.8q-5.9,0-9.4,2.7a9,9,0,0,0-3.5,7.5,9.8,9.8,0,0,0,1.1,4.9,9.9,9.9,0,0,0,3.5,3.4,48.2,48.2,0,0,0,8.4,3.6,45.4,45.4,0,0,1,9.4,4.2,13.4,13.4,0,0,1,4.6,4.6A12.6,12.6,0,0,1,147,40.5Z"/><path class="cls-1" d="M172.2,54.3h-3.8V4.3H151.1V0.8h38.5V4.3H172.2V54.3Z"/><path class="cls-1" d="M223.2,35.4H201.5L194,54.3h-4.1L211.4,0.6h2.4l21.1,53.7h-4.2ZM202.9,32H222l-7.3-19.3q-0.9-2.3-2.2-6.3a58.5,58.5,0,0,1-2.2,6.4Z"/><path class="cls-1" d="M246.1,31V54.3h-3.7V0.8h12.7q9.9,0,14.7,3.7t4.8,11.1a14.5,14.5,0,0,1-2.8,9.1,15.7,15.7,0,0,1-8.6,5.3l14.5,24.3h-4.5L259.4,31H246.1Zm0-3.2h10.2q6.8,0,10.5-3t3.7-8.9q0-6.1-3.7-8.9T255,4.2h-8.8V27.8Z"/><path class="cls-1" d="M300.8,54.3H297V4.3H279.7V0.8h38.5V4.3H300.8V54.3Z"/><path class="cls-1" d="M365.4,0.8V35.4q0,9.2-5.3,14.4T345.2,55q-9.3,0-14.5-5.2t-5.2-14.5V0.8h3.8V35.4q0,7.7,4.3,12t12.1,4.3q7.6,0,11.8-4.2t4.2-11.7V0.8h3.7Z"/><path class="cls-1" d="M412.1,16.2q0,7.7-5.3,11.9t-14.9,4.1h-8.3V54.3h-3.7V0.8H393Q412.1,0.8,412.1,16.2ZM383.7,29H391q9,0,13-3t4-9.7q0-6.2-3.8-9.2t-11.8-3h-8.8V29Z"/><path class="cls-1" d="M171.9,144.1V90.6h3.7v53.4h-3.7Z"/><path class="cls-1" d="M229.6,144.1h-3.8L194.2,96.6h-0.3q0.4,8.5.4,12.8v34.7h-3.6V90.6h3.7L226.1,138h0.2q-0.3-6.6-.3-12.5V90.6h3.6v53.4Z"/><path class="cls-1" d="M258.7,144.1h-3.8V94.2H237.5V90.6H276v3.5H258.7v49.9Z"/><path class="cls-1" d="M313.2,144.1H284V90.6h29.2v3.4H287.7v20.2h24.1v3.4H287.7v22.9h25.5v3.4Z"/><path class="cls-1" d="M329,120.8v23.3h-3.7V90.6H338q9.9,0,14.7,3.7t4.8,11.1a14.5,14.5,0,0,1-2.8,9.1,15.7,15.7,0,0,1-8.6,5.3l14.5,24.3H356l-13.8-23.3H329Zm0-3.2h10.2q6.8,0,10.5-3t3.7-8.9q0-6.1-3.7-8.9T337.8,94H329v23.6Z"/><path class="cls-1" d="M408.6,144.1h-3.8L373.2,96.6h-0.3q0.4,8.5.4,12.8v34.7h-3.6V90.6h3.7L405.1,138h0.2q-0.3-6.6-.3-12.5V90.6h3.6v53.4Z"/><polygon class="cls-2" points="148.9 117.3 113.7 78 80.3 89.7 80.3 1.5 1.5 117.3 80.3 141.8 80.3 186 148.9 117.3"/><line class="cls-2" x1="113.7" y1="78" x2="80.3" y2="186"/><line class="cls-2" x1="59.8" y1="96.5" x2="80.3" y2="1.5"/><line class="cls-2" x1="80.3" y1="141.9" x2="91.8" y2="145.6"/><line class="cls-2" x1="79.9" y1="89.9" x2="1.5" y2="117.3"/><path class="cls-2" d="M113.7,78"/></svg>